Coordinates
version=1
nRows=14
nColumns=36
inDegrees=yes

Units are S.I. units (second, meters, Newtons, ...)
If the header above contains a line with 'inDegrees', this indicates whether rotational values are in degrees (yes) or radians (no).

endheader
time	pelvis_tilt	pelvis_list	pelvis_rotation	pelvis_tx	pelvis_ty	pelvis_tz	hip_flexion_r	hip_adduction_r	hip_rotation_r	knee_angle_r	knee_angle_r_beta	ankle_angle_r	subtalar_angle_r	mtp_angle_r	hip_flexion_l	hip_adduction_l	hip_rotation_l	knee_angle_l	knee_angle_l_beta	ankle_angle_l	subtalar_angle_l	mtp_angle_l	lumbar_extension	lumbar_bending	lumbar_rotation	arm_flex_r	arm_add_r	arm_rot_r	elbow_flex_r	pro_sup_r	arm_flex_l	arm_add_l	arm_rot_l	elbow_flex_l	pro_sup_l
      3.35000000	    -12.18347901	     -5.00018815	     -0.51429594	     -0.21178546	      0.91298128	     -0.50663531	     31.63709892	      3.94686009	     -0.26421491	     31.80159471	      0.55504254	      7.83941378	    -16.34827009	     -7.49999987	     31.28139883	    -18.02465675	     -1.00225215	     27.82496351	      0.48563723	      8.04396586	      0.99936679	     -7.49999987	    -10.95235679	      4.32648737	     -1.88387249	     10.88328410	    -21.63633550	      7.19729718	    120.45406686	     98.27724792	      9.52076747	    -16.28068683	      2.05147907	    119.42145186	     86.75701534
      3.36000000	    -12.83808211	     -4.96212935	     -0.44984482	     -0.21574282	      0.90865871	     -0.50598884	     33.43972938	      3.85872004	     -0.41462549	     33.38957731	      0.58275806	      8.29314330	    -16.60011628	     -7.49999987	     33.07361825	    -18.01243898	     -0.50343073	     29.21458322	      0.50989067	      8.43135504	      0.78051497	     -7.49999987	    -11.20356460	      4.25234592	     -2.00250825	     12.19657168	    -21.89278153	      7.38971733	    120.67612992	     98.43250836	     10.82363454	    -16.58355480	      1.96958095	    119.88178993	     86.91443566
      3.37000000	    -13.52266553	     -4.98238243	     -0.40055612	     -0.21966793	      0.90414130	     -0.50524706	     35.23473637	      3.81609970	     -0.63664272	     34.91519652	      0.60938514	      8.76310082	    -16.82125772	     -7.49999987	     34.92215279	    -18.07946552	     -0.07961647	     30.63090138	      0.53461008	      8.81596252	      0.57912546	     -7.49999987	    -11.43108401	      4.22295018	     -2.07587477	     13.49578701	    -22.17214031	      7.56249514	    120.84836793	     98.55410710	     12.14498182	    -16.88294696	      1.92362383	    120.32311772	     87.04450376
      3.38000000	    -14.33539652	     -5.04059267	     -0.35380856	     -0.22364814	      0.89918377	     -0.50465708	     37.16492647	      3.77176361	     -0.88255982	     36.43971853	      0.63599307	      9.70040511	    -16.36047655	     -7.49999987	     36.96928378	    -18.15078768	      0.50604223	     32.12986902	      0.56077200	      9.44710312	      0.66425754	     -7.49999987	    -11.46620398	      4.28448779	     -2.38293776	     15.08197717	    -22.38120195	      8.06002329	    120.75927329	     99.07408506	     13.19968228	    -17.14603250	      1.54483213	    120.83120140	     87.48753853
      3.39000000	    -14.84660209	     -4.98788800	     -0.33341310	     -0.22758981	      0.89447761	     -0.50419689	     38.80195652	      3.65314469	     -1.05454605	     37.99365013	      0.66311429	     10.14926369	    -16.66019090	     -7.49999987	     38.66925019	    -18.16304916	      0.81224115	     33.66443742	      0.58755527	      9.93355847	      0.53089662	     -7.49999987	    -11.89241428	      4.21362137	     -2.39524422	     16.48713887	    -22.69139065	      8.17874749	    120.95299058	     99.23679423	     14.63720288	    -17.41565105	      1.56695469	    121.17665410	     87.62546316
      3.40000000	    -15.13649024	     -4.91798093	     -0.30863677	     -0.23136461	      0.89002234	     -0.50384942	     40.17795217	      3.50076225	     -1.23653861	     39.51928178	      0.68974159	     10.55564764	    -16.94550683	     -7.49999987	     40.10835009	    -18.19065751	      0.98792159	     35.19884896	      0.61433581	     10.27887934	      0.42719038	     -7.49999987	    -12.59863772	      4.12645595	     -2.39005332	     17.95597256	    -22.98916372	      8.24586368	    121.12306139	     99.32489871	     16.12212091	    -17.62151262	      1.58043962	    121.51392829	     87.69910802
      3.41000000	    -15.85277931	     -4.91285024	     -0.29332311	     -0.23515142	      0.88478965	     -0.50355015	     42.00327857	      3.41980545	     -1.31567965	     41.03389750	      0.71617662	     11.23587692	    -16.96833415	     -7.49999987	     42.03480809	    -18.20695901	      1.43427582	     36.75068401	      0.64142044	     10.89624006	      0.54399890	     -7.49999987	    -12.75217904	      4.14863547	     -2.42900849	     19.37287077	    -23.34552693	      8.52824299	    121.22377078	     99.47072484	     17.40177324	    -17.84032666	      1.62987989	    121.88765882	     87.79968282
      3.42000000	    -16.07011935	     -4.85214700	     -0.27621252	     -0.23874623	      0.88022203	     -0.50320271	     43.27307766	      3.31665619	     -1.34972717	     42.54151712	      0.74248954	     11.67290720	    -17.21668150	     -7.49999987	     43.37488465	    -18.25332642	      1.59696702	     38.26167401	      0.66779219	     11.16605106	      0.51224427	     -7.49999987	    -13.52392533	      4.06500817	     -2.36804535	     20.84293299	    -23.63290244	      8.59538333	    121.31669783	     99.51858402	     18.92744850	    -18.01155275	      1.61921667	    122.21027444	     87.87365876
      3.43000000	    -16.87217572	     -4.89745680	     -0.30768754	     -0.24244045	      0.87438605	     -0.50275216	     45.20407890	      3.31416568	     -1.43431797	     44.07656526	      0.76928119	     12.50716010	    -17.23612071	     -7.49999987	     45.47041431	    -18.40077260	      1.89068331	     39.91933285	      0.69672379	     11.96953978	      0.78475946	     -7.49999987	    -13.53556626	      4.13486935	     -2.34107884	     22.24477324	    -24.03727128	      8.96940283	    121.42420664	     99.62031935	     20.19614877	    -18.33132394	      1.69979905	    122.57959382	     88.08550288
      3.44000000	    -17.42960718	     -4.97570077	     -0.33158645	     -0.24607836	      0.86873221	     -0.50245220	     46.86305990	      3.30002246	     -1.60399967	     45.59230172	      0.79573578	     13.19971375	    -17.16574134	     -7.49999987	     47.30532663	    -18.56613229	      2.23368623	     41.57873821	      0.72568588	     12.65424844	      1.13351507	     -7.49999987	    -13.85599035	      4.23508959	     -2.28525845	     23.76549627	    -24.37200404	      9.22191625	    121.45534822	     99.70871408	     21.45925140	    -18.55909504	      1.71168218	    122.95036871	     88.36316919
      3.45000000	    -17.73532995	     -4.98435416	     -0.23207345	     -0.24963745	      0.86335019	     -0.50263327	     48.25090832	      3.11329797	     -1.80260564	     47.13688694	      0.82269388	     13.65451572	    -17.32742646	     -7.49999987	     48.85625449	    -18.57036757	      2.49307872	     43.18164217	      0.75366183	     13.08242048	      1.11023783	     -7.49999987	    -14.49965272	      4.29706378	     -2.29465472	     25.29928405	    -24.78336695	      9.33616772	    121.55350932	     99.74624585	     22.83959056	    -18.72072688	      1.84135739	    123.32003536	     88.50495406
      3.46000000	    -18.09308011	     -5.00952997	     -0.16256723	     -0.25322554	      0.85774310	     -0.50284516	     49.69648411	      2.94501911	     -2.01050542	     48.65920556	      0.84926335	     14.13980911	    -17.43727237	     -7.49999987	     50.45297629	    -18.54842022	      2.89815169	     44.77699275	      0.78150595	     13.56544934	      1.09222347	     -7.49999987	    -15.07048210	      4.40188609	     -2.27215087	     26.86181773	    -25.21557289	      9.51550106	    121.66010923	     99.78020788	     24.18616884	    -18.83737196	      1.96573147	    123.65298022	     88.62494313
      3.47000000	    -18.42523167	     -5.07413047	     -0.21841488	     -0.25667911	      0.85200552	     -0.50259524	     51.10172910	      2.94792202	     -2.12405774	     50.14829057	      0.87525278	     14.60998731	    -17.55096431	     -7.49999987	     51.99107332	    -18.68893263	      3.24235387	     46.36718971	      0.80926013	     14.03748523	      1.09161232	     -7.49999987	    -15.65439852	      4.49798918	     -2.11006537	     28.43438705	    -25.59202628	      9.68505155	    121.75263620	     99.81493849	     25.52909668	    -18.97292002	      2.05770262	    123.97687080	     88.72722794
      3.48000000	    -19.05649426	     -5.41498954	     -0.36012429	     -0.26003423	      0.84554041	     -0.50206820	     52.77064623	      3.20922339	     -2.38702675	     51.53486023	      0.89945299	     15.67343426	    -16.94939776	     -7.49999987	     54.00637217	    -19.16971817	      3.73119870	     48.09117460	      0.83934934	     15.25552277	      2.12485189	     -7.49999987	    -15.82046705	      4.92981895	     -2.03191607	     30.24389484	    -26.05301504	     10.41353342	    121.63434345	     99.96885345	     26.52253843	    -19.22018775	      1.93522383	    124.39306648	     89.13253248
